<?xml version="1.0" encoding="UTF-8" standalone="no"?>
<svg
   xmlns:dc="http://purl.org/dc/elements/1.1/"
   xmlns:cc="http://creativecommons.org/ns#"
   xmlns:rdf="http://www.w3.org/1999/02/22-rdf-syntax-ns#"
   xmlns:svg="http://www.w3.org/2000/svg"
   xmlns="http://www.w3.org/2000/svg"
   xmlns:xlink="http://www.w3.org/1999/xlink"
   width="264px"
   height="280px"
   viewBox="0 0 264 280"
   version="1.1"
   id="svg236">
  <metadata
     id="metadata240">
    <rdf:RDF>
      <cc:Work
         rdf:about="">
        <dc:format>image/svg+xml</dc:format>
        <dc:type
           rdf:resource="http://purl.org/dc/dcmitype/StillImage" />
        <dc:title></dc:title>
      </cc:Work>
    </rdf:RDF>
  </metadata>
  <desc
     id="desc126">Created with getavataaars.com</desc>
  <defs
     id="defs131">
    <circle
       id="react-path-1"
       cx="120"
       cy="120"
       r="120" />
    <path
       d="M12,160 C12,226.27417 65.72583,280 132,280 C198.27417,280 252,226.27417 252,160 L264,160 L264,-1.42108547e-14 L-3.19744231e-14,-1.42108547e-14 L-3.19744231e-14,160 L12,160 Z"
       id="react-path-2" />
    <path
       d="M124,144.610951 L124,163 L128,163 L128,163 C167.764502,163 200,195.235498 200,235 L200,244 L0,244 L0,235 C-4.86974701e-15,195.235498 32.235498,163 72,163 L72,163 L76,163 L76,144.610951 C58.7626345,136.422372 46.3722246,119.687011 44.3051388,99.8812385 C38.4803105,99.0577866 34,94.0521096 34,88 L34,74 C34,68.0540074 38.3245733,63.1180731 44,62.1659169 L44,56 L44,56 C44,25.072054 69.072054,5.68137151e-15 100,0 L100,0 L100,0 C130.927946,-5.68137151e-15 156,25.072054 156,56 L156,62.1659169 C161.675427,63.1180731 166,68.0540074 166,74 L166,88 C166,94.0521096 161.51969,99.0577866 155.694861,99.8812385 C153.627775,119.687011 141.237365,136.422372 124,144.610951 Z"
       id="react-path-3" />
    <defs
       id="defs196">
      <rect
         id="react-path-409"
         x="0"
         y="0"
         width="264"
         height="280" />
      <path
         d="m 180.14998,39.920408 c -2.75977,-2.820009 -5.96407,-5.213578 -9.08073,-7.613858 -0.68768,-0.529108 -1.38641,-1.045467 -2.05871,-1.594706 -0.15285,-0.124812 -1.71854,-1.246105 -1.90585,-1.65879 -0.45087,-0.992791 -0.18965,-0.219762 -0.12743,-1.404468 0.0786,-1.498078 3.13338,-5.729267 0.85392,-6.699578 -1.00277,-0.426776 -2.79155,0.708945 -3.75351,1.084051 -1.88144,0.734109 -3.78595,1.360181 -5.73094,1.900026 0.93186,-1.856744 2.7086,-5.573587 -0.63082,-4.578783 -2.60157,0.775041 -5.02586,2.767669 -7.64013,3.7051 0.86495,-1.41789 4.32412,-5.811468 1.19843,-6.057065 -0.97266,-0.0765 -3.80301,1.748036 -4.85026,2.137235 -3.13673,1.165917 -6.34069,1.919485 -9.63395,2.513012 -11.19797,2.018127 -24.29276,1.442718 -34.6532,6.540879 -7.98732,3.930231 -15.874298,10.028565 -20.488414,17.794076 -4.447212,7.48502 -6.110568,15.676636 -7.041419,24.25376 -0.683003,6.29461 -0.738526,12.801266 -0.4191,19.118691 0.104357,2.069797 0.337153,11.61086 3.344105,8.721396 1.498125,-1.439698 1.487087,-7.253179 1.864377,-9.220978 0.750902,-3.915133 1.473708,-7.847713 2.725657,-11.637698 2.206213,-6.678776 4.808782,-13.793051 10.304915,-18.392972 3.527064,-2.951531 6.00387,-6.940813 9.379079,-9.918515 1.51619,-1.337366 0.35923,-1.198127 2.7969,-1.022652 1.6376,0.117766 3.28256,0.162725 4.92351,0.205671 3.79598,0.09864 7.59799,0.07348 11.39498,0.0869 7.64682,0.02751 15.25785,0.135548 22.89732,-0.264722 3.39494,-0.177823 6.79925,-0.274117 10.18517,-0.588159 1.89147,-0.175475 5.24762,-1.387693 6.80461,-0.461334 1.42487,0.847512 2.9046,3.614846 3.92777,4.748218 2.41726,2.678422 5.29946,4.724061 8.12612,6.920347 5.89417,4.579454 8.87001,10.3312 10.66013,17.48775 1.78344,7.130044 1.28339,13.744909 3.49095,20.761549 0.38832,1.233691 1.4155,3.360189 2.68184,1.454125 0.23513,-0.353969 0.17426,-2.299887 0.17426,-3.419576 0,-4.519746 1.14458,-7.910962 1.1302,-12.460219 -0.0562,-13.831971 -0.50339,-31.868289 -10.84978,-42.438713 z"
         id="react-path-408" />
      <filter
         x="-0.0080000004"
         y="-0.02"
         width="1.015"
         height="1.08"
         filterUnits="objectBoundingBox"
         id="react-filter-405">
        <feOffset
           dx="0"
           dy="2"
           in="SourceAlpha"
           result="shadowOffsetOuter1"
           id="feOffset185" />
        <feColorMatrix
           values="0 0 0 0 0   0 0 0 0 0   0 0 0 0 0  0 0 0 0.16 0"
           type="matrix"
           in="shadowOffsetOuter1"
           result="shadowMatrixOuter1"
           id="feColorMatrix187" />
        <feMerge
           id="feMerge193">
          <feMergeNode
             in="shadowMatrixOuter1"
             id="feMergeNode189" />
          <feMergeNode
             in="SourceGraphic"
             id="feMergeNode191" />
        </feMerge>
      </filter>
    </defs>
    <mask
       id="react-mask-407"
       fill="#ffffff">
      <use
         xlink:href="#react-path-409"
         id="use198"
         x="0"
         y="0"
         width="100%"
         height="100%" />
    </mask>
    <mask
       id="react-mask-406"
       fill="#ffffff">
      <use
         xlink:href="#react-path-408"
         id="use216"
         x="0"
         y="0"
         width="100%"
         height="100%" />
    </mask>
    <mask
       id="react-mask-6"
       fill="#ffffff">
      <use
         xlink:href="#react-path-3"
         id="use144"
         x="0"
         y="0"
         width="100%"
         height="100%" />
    </mask>
  </defs>
  <g
     id="g234"
     stroke="none"
     stroke-width="1"
     fill="none"
     fill-rule="evenodd">
    <g
       id="g231">
      <g
         id="Circle"
         stroke-width="1"
         fill-rule="evenodd"
         transform="translate(12,40)"
         style="fill:#8cdcff;fill-opacity:1">
        <mask
           id="react-mask-4"
           fill="#ffffff">
          <use
             xlink:href="#react-path-1"
             id="use133"
             x="0"
             y="0"
             width="100%"
             height="100%" />
        </mask>
        <use
           id="Circle-Background"
           fill="#e6e6e6"
           xlink:href="#react-path-1"
           x="0"
           y="0"
           width="100%"
           height="100%"
           style="fill:#8cdcff;fill-opacity:1" />
        <g
           id="Color/Palette/Blue-01"
           mask="url(#react-mask-4)"
           fill="#65c9ff"
           style="fill:#8cdcff;fill-opacity:1">
          <rect
             id="ðŸ–Color"
             x="0"
             y="0"
             width="240"
             height="240"
             style="fill:#8cdcff;fill-opacity:1" />
        </g>
      </g>
      <mask
         id="react-mask-5"
         fill="#ffffff">
        <use
           xlink:href="#react-path-2"
           id="use140"
           x="0"
           y="0"
           width="100%"
           height="100%" />
      </mask>
      <g
         id="Mask" />
      <use
         fill="#d0c6ac"
         xlink:href="#react-path-3"
         id="use147"
         x="0"
         y="0"
         width="100%"
         height="100%"
         style="fill-rule:evenodd;stroke-width:1"
         transform="translate(32,36)" />
      <g
         id="Skin/ðŸ‘¶ðŸ½-03-Brown"
         mask="url(#react-mask-6)"
         fill="#ffdbb4"
         style="fill-rule:evenodd;stroke-width:1"
         transform="translate(32,36)">
        <g
           id="Color">
          <rect
             x="0"
             y="0"
             width="264"
             height="280"
             id="rect149" />
        </g>
      </g>
      <path
         d="m 156,79 v 23 c 0,30.92795 -25.07205,56 -56,56 -30.927946,0 -56,-25.07205 -56,-56 V 79 94 c 0,30.92795 25.072054,56 56,56 30.92795,0 56,-25.07205 56,-56 z"
         id="Neck-Shadow"
         fill-opacity="0.1"
         fill="#000000"
         mask="url(#react-mask-6)"
         style="fill-rule:evenodd;stroke-width:1"
         transform="translate(32,36)" />
      <g
         id="Clothing/Shirt-Crew-Neck"
         transform="translate(0,170)"
         style="fill-rule:evenodd;stroke-width:1">
        <defs
           id="defs156">
          <path
             d="M 165.96047,29.294916 C 202.93647,32.324998 232,63.294286 232,101.05172 V 110 H 32 v -8.94828 C 32,62.952563 61.591985,31.764981 99.045406,29.219526 99.01526,29.593114 99,29.969227 99,30.347625 c 0,11.863093 14.99846,21.480029 33.5,21.480029 18.50154,0 33.5,-9.616936 33.5,-21.480029 0,-0.352956 -0.0133,-0.703924 -0.0395,-1.052709 z"
             id="react-path-527" />
        </defs>
        <mask
           id="react-mask-528"
           fill="#ffffff">
          <use
             xlink:href="#react-path-527"
             id="use158"
             x="0"
             y="0"
             width="100%"
             height="100%" />
        </mask>
        <use
           id="Clothes"
           fill="#e6e6e6"
           fill-rule="evenodd"
           xlink:href="#react-path-527"
           x="0"
           y="0"
           width="100%"
           height="100%" />
        <g
           id="Color/Palette/Gray-01"
           mask="url(#react-mask-528)"
           fill-rule="evenodd"
           fill="#3c4f5c">
          <rect
             id="rect162"
             x="0"
             y="0"
             width="264"
             height="110" />
        </g>
        <g
           id="Shadowy"
           opacity="0.6"
           stroke-width="1"
           fill-rule="evenodd"
           mask="url(#react-mask-528)"
           fill-opacity="0.16"
           fill="#000000">
          <g
             transform="translate(92,4)"
             id="Hola-ðŸ‘‹ðŸ¼">
            <ellipse
               cx="40.5"
               cy="27.847626"
               rx="39.635105"
               ry="26.913828"
               id="ellipse165" />
          </g>
        </g>
      </g>
      <g
         id="Mouth/Twinkle"
         transform="translate(78,134)"
         fill-opacity="0.6"
         fill-rule="nonzero"
         fill="#000000"
         style="stroke-width:1">
        <path
           d="m 40,16 c 0,5.371763 6.158154,9 14,9 7.841846,0 14,-3.628237 14,-9 0,-1.104569 -0.949699,-2 -2,-2 -1.292725,0 -1.869768,0.905176 -2,2 -1.242424,2.937897 -4.316741,4.716315 -10,5 -5.683259,-0.283685 -8.757576,-2.062103 -10,-5 -0.130232,-1.094824 -0.707275,-2 -2,-2 -1.050301,0 -2,0.895431 -2,2 z"
           id="Mouth" />
      </g>
      <g
         id="Nose/Default"
         transform="translate(104,122)"
         fill-opacity="0.16"
         style="fill:#000000;fill-rule:evenodd;stroke-width:1">
        <path
           d="m 16,8 c 0,4.418278 5.372583,8 12,8 v 0 c 6.627417,0 12,-3.581722 12,-8"
           id="Nose" />
      </g>
      <g
         id="Eyes/Default-ðŸ˜€"
         transform="translate(76,90)"
         fill-opacity="0.6"
         style="fill:#000000;fill-rule:evenodd;stroke-width:1">
        <circle
           id="Eye"
           cx="30"
           cy="22"
           r="6" />
        <circle
           id="circle175"
           cx="82"
           cy="22"
           r="6" />
      </g>
      <g
         id="Eyebrow/Natural/Default-Natural"
         fill-opacity="0.6"
         style="fill:#000000;fill-rule:evenodd;stroke-width:1"
         transform="translate(76,82)">
        <path
           d="M 26.039093,6.2101236 C 20.277555,6.9834622 11.292931,12.005248 12.04426,17.817811 c 0.02469,0.190243 0.31247,0.249536 0.436648,0.09068 2.486496,-3.188159 21.711889,-7.871946 28.713359,-6.893779 0.640785,0.08973 1.063799,-0.571681 0.626783,-0.984508 C 38.076566,6.4948543 31.200379,5.5122482 26.039093,6.2101236"
           id="Eyebrow"
           transform="rotate(5,27,12)" />
        <path
           d="M 85.039093,6.2101236 C 79.277555,6.9834622 70.292931,12.005248 71.04426,17.817811 c 0.02469,0.190243 0.31247,0.249536 0.436648,0.09068 2.486496,-3.188159 21.711889,-7.871946 28.713362,-6.893779 0.64078,0.08973 1.0638,-0.571681 0.62678,-0.984508 C 97.076566,6.4948543 90.200379,5.5122482 85.039093,6.2101236"
           id="path179"
           transform="matrix(-0.9961947,0.08715574,0.08715574,0.9961947,170.62688,-7.4497303)" />
      </g>
      <g
         id="g201"
         style="fill-rule:evenodd;stroke-width:1" />
      <g
         id="Facial-Hair/Beard-Light"
         transform="translate(48,72)"
         style="fill-rule:evenodd;stroke-width:1;fill:#9b7d57;fill-opacity:1">
        <defs
           id="defs204">
          <path
             d="m 101.4284,98.168569 c -2.513563,2.294051 -5.19118,3.325741 -8.575456,2.604291 -0.582366,-0.12403 -2.956605,-4.538289 -8.85311,-4.538289 -5.896504,0 -8.270409,4.414259 -8.853109,4.538289 -3.384276,0.72145 -6.061893,-0.31024 -8.575459,-2.604291 -4.725089,-4.312965 -8.654644,-10.260383 -6.293436,-16.749388 1.230554,-3.382239 3.231918,-7.095447 6.872796,-8.17327 3.88779,-1.150369 9.346267,-0.002 13.264128,-0.78764 1.269312,-0.254746 2.6559,-0.707405 3.58508,-1.458271 0.929181,0.750866 2.316103,1.203525 3.584747,1.458271 3.918195,0.785634 9.376671,-0.362729 13.264459,0.78764 3.64088,1.077823 5.64224,4.791031 6.87313,8.17327 2.36121,6.489005 -1.56834,12.436423 -6.29377,16.749388 M 140.08103,26 c -3.41034,8.400253 -2.09326,18.858035 -2.72436,27.675872 -0.51263,7.167322 -2.01955,17.909881 -8.38381,22.538659 -3.2545,2.367083 -9.1785,6.345368 -13.43099,5.235663 -2.92733,-0.763809 -3.23969,-9.160098 -7.08659,-12.303214 -4.36356,-3.564665 -9.812295,-5.130937 -15.306132,-4.889108 -2.37061,0.104396 -7.165011,0.07962 -9.149215,1.902586 -1.984203,-1.822967 -6.778268,-1.79819 -9.148878,-1.902586 -5.494174,-0.241829 -10.942908,1.324443 -15.306473,4.889108 -3.846898,3.143116 -4.158918,11.539405 -7.086249,12.303214 -4.25249,1.109705 -10.176491,-2.86858 -13.431325,-5.235663 C 32.66241,71.585753 31.156165,60.843194 30.642864,53.675872 30.012093,44.858035 31.329173,34.400253 27.918834,26 c -1.659057,0 -0.5648,16.128869 -0.5648,16.128869 V 62.48512 c 0.03164,15.288085 9.581061,38.17033 30.753978,46.90788 5.178115,2.13682 16.907299,5.607 25.891921,5.607 8.984622,0 20.713807,-3.13981 25.891927,-5.27663 21.17291,-8.73756 30.72233,-31.950165 30.75431,-47.23825 V 42.128869 c 0,0 1.09392,-16.128869 -0.56514,-16.128869"
             id="react-path-480" />
        </defs>
        <mask
           id="react-mask-479"
           fill="#ffffff">
          <use
             xlink:href="#react-path-480"
             id="use206"
             x="0"
             y="0"
             width="100%"
             height="100%" />
        </mask>
        <use
           id="Lite-Beard"
           fill="#331b0c"
           fill-rule="evenodd"
           xlink:href="#react-path-480"
           x="0"
           y="0"
           width="100%"
           height="100%"
           style="fill:#9b7d57;fill-opacity:1" />
        <g
           id="Color/Hair/Brown"
           mask="url(#react-mask-479)"
           fill="#724133"
           style="fill:#9b7d57;fill-opacity:1">
          <g
             transform="translate(-32)"
             id="g212"
             style="fill:#9b7d57;fill-opacity:1">
            <rect
               x="0"
               y="0"
               width="264"
               height="244"
               id="rect210"
               style="fill:#9b7d57;fill-opacity:1" />
          </g>
        </g>
      </g>
      <use
         id="Short-Hair"
         stroke="none"
         fill="#1f3140"
         fill-rule="evenodd"
         xlink:href="#react-path-408"
         x="0"
         y="0"
         width="100%"
         height="100%"
         style="stroke-width:1"
         transform="translate(-1)" />
      <g
         id="g224"
         mask="url(#react-mask-406)"
         fill="#724133"
         style="fill-rule:evenodd;stroke-width:1;fill:#9b7d57;fill-opacity:1"
         transform="translate(-1)">
        <g
           id="g222"
           style="fill:#9b7d57;fill-opacity:1">
          <rect
             x="0"
             y="0"
             width="264"
             height="280"
             id="rect220"
             style="fill:#9b7d57;fill-opacity:1" />
        </g>
      </g>
    </g>
  </g>
</svg>
